<?xml version="1.0" encoding="UTF-8" standalone="no"?>
<!DOCTYPE svg PUBLIC "-//W3C//DTD SVG 1.1//EN"
 "http://www.w3.org/Graphics/SVG/1.1/DTD/svg11.dtd">
<!-- Generated by graphviz version 2.43.0 (0)
 -->
<!-- Title: %3 Pages: 1 -->
<svg width="400pt" height="677pt"
 viewBox="0.00 0.00 400.00 677.00" xmlns="http://www.w3.org/2000/svg" xmlns:xlink="http://www.w3.org/1999/xlink">
<g id="graph0" class="graph" transform="scale(1 1) rotate(0) translate(4 673)">
<title>%3</title>
<polygon fill="white" stroke="transparent" points="-4,4 -4,-673 396,-673 396,4 -4,4"/>
<!-- 140433577199552 -->
<g id="node1" class="node">
<title>140433577199552</title>
<polygon fill="#caff70" stroke="black" points="264,-31 205,-31 205,0 264,0 264,-31"/>
<text text-anchor="middle" x="234.5" y="-7" font-family="monospace" font-size="10.00"> (2000)</text>
</g>
<!-- 140428739720528 -->
<g id="node2" class="node">
<title>140428739720528</title>
<polygon fill="lightgrey" stroke="black" points="291,-86 178,-86 178,-67 291,-67 291,-86"/>
<text text-anchor="middle" x="234.5" y="-74" font-family="monospace" font-size="10.00">SigmoidBackward0</text>
</g>
<!-- 140428739720528&#45;&gt;140433577199552 -->
<g id="edge21" class="edge">
<title>140428739720528&#45;&gt;140433577199552</title>
<path fill="none" stroke="black" d="M234.5,-66.79C234.5,-60.07 234.5,-50.4 234.5,-41.34"/>
<polygon fill="black" stroke="black" points="238,-41.19 234.5,-31.19 231,-41.19 238,-41.19"/>
</g>
<!-- 140428739720288 -->
<g id="node3" class="node">
<title>140428739720288</title>
<polygon fill="lightgrey" stroke="black" points="291,-141 178,-141 178,-122 291,-122 291,-141"/>
<text text-anchor="middle" x="234.5" y="-129" font-family="monospace" font-size="10.00">SqueezeBackward1</text>
</g>
<!-- 140428739720288&#45;&gt;140428739720528 -->
<g id="edge1" class="edge">
<title>140428739720288&#45;&gt;140428739720528</title>
<path fill="none" stroke="black" d="M234.5,-121.75C234.5,-114.8 234.5,-104.85 234.5,-96.13"/>
<polygon fill="black" stroke="black" points="238,-96.09 234.5,-86.09 231,-96.09 238,-96.09"/>
</g>
<!-- 140428739720672 -->
<g id="node4" class="node">
<title>140428739720672</title>
<polygon fill="lightgrey" stroke="black" points="279,-196 190,-196 190,-177 279,-177 279,-196"/>
<text text-anchor="middle" x="234.5" y="-184" font-family="monospace" font-size="10.00">AddBackward0</text>
</g>
<!-- 140428739720672&#45;&gt;140428739720288 -->
<g id="edge2" class="edge">
<title>140428739720672&#45;&gt;140428739720288</title>
<path fill="none" stroke="black" d="M234.5,-176.75C234.5,-169.8 234.5,-159.85 234.5,-151.13"/>
<polygon fill="black" stroke="black" points="238,-151.09 234.5,-141.09 231,-151.09 238,-151.09"/>
</g>
<!-- 140428739720864 -->
<g id="node5" class="node">
<title>140428739720864</title>
<polygon fill="lightgrey" stroke="black" points="226,-251 137,-251 137,-232 226,-232 226,-251"/>
<text text-anchor="middle" x="181.5" y="-239" font-family="monospace" font-size="10.00">AddBackward0</text>
</g>
<!-- 140428739720864&#45;&gt;140428739720672 -->
<g id="edge3" class="edge">
<title>140428739720864&#45;&gt;140428739720672</title>
<path fill="none" stroke="black" d="M190.25,-231.75C197.97,-224.03 209.4,-212.6 218.72,-203.28"/>
<polygon fill="black" stroke="black" points="221.31,-205.64 225.91,-196.09 216.36,-200.69 221.31,-205.64"/>
</g>
<!-- 140428739721008 -->
<g id="node6" class="node">
<title>140428739721008</title>
<polygon fill="lightgrey" stroke="black" points="111,-306 22,-306 22,-287 111,-287 111,-306"/>
<text text-anchor="middle" x="66.5" y="-294" font-family="monospace" font-size="10.00">SumBackward1</text>
</g>
<!-- 140428739721008&#45;&gt;140428739720864 -->
<g id="edge4" class="edge">
<title>140428739721008&#45;&gt;140428739720864</title>
<path fill="none" stroke="black" d="M84.98,-286.98C103.48,-278.46 132.18,-265.23 153.48,-255.41"/>
<polygon fill="black" stroke="black" points="155.07,-258.53 162.69,-251.17 152.14,-252.18 155.07,-258.53"/>
</g>
<!-- 140428739721392 -->
<g id="node7" class="node">
<title>140428739721392</title>
<polygon fill="lightgrey" stroke="black" points="125,-366.5 0,-366.5 0,-347.5 125,-347.5 125,-366.5"/>
<text text-anchor="middle" x="62.5" y="-354.5" font-family="monospace" font-size="10.00">EmbeddingBackward0</text>
</g>
<!-- 140428739721392&#45;&gt;140428739721008 -->
<g id="edge5" class="edge">
<title>140428739721392&#45;&gt;140428739721008</title>
<path fill="none" stroke="black" d="M63.09,-347.37C63.65,-339.25 64.5,-326.81 65.21,-316.39"/>
<polygon fill="black" stroke="black" points="68.72,-316.38 65.91,-306.17 61.73,-315.91 68.72,-316.38"/>
</g>
<!-- 140428739721776 -->
<g id="node8" class="node">
<title>140428739721776</title>
<polygon fill="lightgrey" stroke="black" points="113,-427 12,-427 12,-408 113,-408 113,-427"/>
<text text-anchor="middle" x="62.5" y="-415" font-family="monospace" font-size="10.00">AccumulateGrad</text>
</g>
<!-- 140428739721776&#45;&gt;140428739721392 -->
<g id="edge6" class="edge">
<title>140428739721776&#45;&gt;140428739721392</title>
<path fill="none" stroke="black" d="M62.5,-407.87C62.5,-399.75 62.5,-387.31 62.5,-376.89"/>
<polygon fill="black" stroke="black" points="66,-376.67 62.5,-366.67 59,-376.67 66,-376.67"/>
</g>
<!-- 140428875410224 -->
<g id="node9" class="node">
<title>140428875410224</title>
<polygon fill="lightblue" stroke="black" points="119,-493 6,-493 6,-463 119,-463 119,-493"/>
<text text-anchor="middle" x="62.5" y="-481" font-family="monospace" font-size="10.00">linear.fc.weight</text>
<text text-anchor="middle" x="62.5" y="-470" font-family="monospace" font-size="10.00"> (9746, 1)</text>
</g>
<!-- 140428875410224&#45;&gt;140428739721776 -->
<g id="edge7" class="edge">
<title>140428875410224&#45;&gt;140428739721776</title>
<path fill="none" stroke="black" d="M62.5,-462.84C62.5,-455.21 62.5,-445.7 62.5,-437.45"/>
<polygon fill="black" stroke="black" points="66,-437.27 62.5,-427.27 59,-437.27 66,-437.27"/>
</g>
<!-- 140428739720912 -->
<g id="node10" class="node">
<title>140428739720912</title>
<polygon fill="lightgrey" stroke="black" points="232,-306 131,-306 131,-287 232,-287 232,-306"/>
<text text-anchor="middle" x="181.5" y="-294" font-family="monospace" font-size="10.00">AccumulateGrad</text>
</g>
<!-- 140428739720912&#45;&gt;140428739720864 -->
<g id="edge8" class="edge">
<title>140428739720912&#45;&gt;140428739720864</title>
<path fill="none" stroke="black" d="M181.5,-286.75C181.5,-279.8 181.5,-269.85 181.5,-261.13"/>
<polygon fill="black" stroke="black" points="185,-261.09 181.5,-251.09 178,-261.09 185,-261.09"/>
</g>
<!-- 140428875408144 -->
<g id="node11" class="node">
<title>140428875408144</title>
<polygon fill="lightblue" stroke="black" points="226,-372 143,-372 143,-342 226,-342 226,-372"/>
<text text-anchor="middle" x="184.5" y="-360" font-family="monospace" font-size="10.00">linear.bias</text>
<text text-anchor="middle" x="184.5" y="-349" font-family="monospace" font-size="10.00"> (1)</text>
</g>
<!-- 140428875408144&#45;&gt;140428739720912 -->
<g id="edge9" class="edge">
<title>140428875408144&#45;&gt;140428739720912</title>
<path fill="none" stroke="black" d="M183.77,-341.84C183.38,-334.21 182.9,-324.7 182.47,-316.45"/>
<polygon fill="black" stroke="black" points="185.96,-316.07 181.95,-306.27 178.97,-316.43 185.96,-316.07"/>
</g>
<!-- 140428739720624 -->
<g id="node12" class="node">
<title>140428739720624</title>
<polygon fill="lightgrey" stroke="black" points="336,-251 247,-251 247,-232 336,-232 336,-251"/>
<text text-anchor="middle" x="291.5" y="-239" font-family="monospace" font-size="10.00">MulBackward0</text>
</g>
<!-- 140428739720624&#45;&gt;140428739720672 -->
<g id="edge10" class="edge">
<title>140428739720624&#45;&gt;140428739720672</title>
<path fill="none" stroke="black" d="M282.34,-231.98C274,-224.23 261.47,-212.58 251.32,-203.14"/>
<polygon fill="black" stroke="black" points="253.53,-200.42 243.82,-196.17 248.76,-205.54 253.53,-200.42"/>
</g>
<!-- 140428739721632 -->
<g id="node13" class="node">
<title>140428739721632</title>
<polygon fill="lightgrey" stroke="black" points="339,-306 250,-306 250,-287 339,-287 339,-306"/>
<text text-anchor="middle" x="294.5" y="-294" font-family="monospace" font-size="10.00">SumBackward1</text>
</g>
<!-- 140428739721632&#45;&gt;140428739720624 -->
<g id="edge11" class="edge">
<title>140428739721632&#45;&gt;140428739720624</title>
<path fill="none" stroke="black" d="M294,-286.75C293.61,-279.8 293.05,-269.85 292.55,-261.13"/>
<polygon fill="black" stroke="black" points="296.05,-260.88 291.99,-251.09 289.06,-261.27 296.05,-260.88"/>
</g>
<!-- 140428739721824 -->
<g id="node14" class="node">
<title>140428739721824</title>
<polygon fill="lightgrey" stroke="black" points="339,-366.5 250,-366.5 250,-347.5 339,-347.5 339,-366.5"/>
<text text-anchor="middle" x="294.5" y="-354.5" font-family="monospace" font-size="10.00">SubBackward0</text>
</g>
<!-- 140428739721824&#45;&gt;140428739721632 -->
<g id="edge12" class="edge">
<title>140428739721824&#45;&gt;140428739721632</title>
<path fill="none" stroke="black" d="M294.5,-347.37C294.5,-339.25 294.5,-326.81 294.5,-316.39"/>
<polygon fill="black" stroke="black" points="298,-316.17 294.5,-306.17 291,-316.17 298,-316.17"/>
</g>
<!-- 140428739721488 -->
<g id="node15" class="node">
<title>140428739721488</title>
<polygon fill="lightgrey" stroke="black" points="285,-427 196,-427 196,-408 285,-408 285,-427"/>
<text text-anchor="middle" x="240.5" y="-415" font-family="monospace" font-size="10.00">PowBackward0</text>
</g>
<!-- 140428739721488&#45;&gt;140428739721824 -->
<g id="edge13" class="edge">
<title>140428739721488&#45;&gt;140428739721824</title>
<path fill="none" stroke="black" d="M248.47,-407.87C256.6,-399.05 269.43,-385.16 279.48,-374.27"/>
<polygon fill="black" stroke="black" points="282.29,-376.39 286.5,-366.67 277.14,-371.64 282.29,-376.39"/>
</g>
<!-- 140428739722064 -->
<g id="node16" class="node">
<title>140428739722064</title>
<polygon fill="lightgrey" stroke="black" points="285,-487.5 196,-487.5 196,-468.5 285,-468.5 285,-487.5"/>
<text text-anchor="middle" x="240.5" y="-475.5" font-family="monospace" font-size="10.00">SumBackward1</text>
</g>
<!-- 140428739722064&#45;&gt;140428739721488 -->
<g id="edge14" class="edge">
<title>140428739722064&#45;&gt;140428739721488</title>
<path fill="none" stroke="black" d="M240.5,-468.37C240.5,-460.25 240.5,-447.81 240.5,-437.39"/>
<polygon fill="black" stroke="black" points="244,-437.17 240.5,-427.17 237,-437.17 244,-437.17"/>
</g>
<!-- 140428739722208 -->
<g id="node17" class="node">
<title>140428739722208</title>
<polygon fill="lightgrey" stroke="black" points="356,-548 231,-548 231,-529 356,-529 356,-548"/>
<text text-anchor="middle" x="293.5" y="-536" font-family="monospace" font-size="10.00">EmbeddingBackward0</text>
</g>
<!-- 140428739722208&#45;&gt;140428739722064 -->
<g id="edge15" class="edge">
<title>140428739722208&#45;&gt;140428739722064</title>
<path fill="none" stroke="black" d="M285.68,-528.87C277.69,-520.05 265.11,-506.16 255.24,-495.27"/>
<polygon fill="black" stroke="black" points="257.66,-492.73 248.35,-487.67 252.47,-497.43 257.66,-492.73"/>
</g>
<!-- 140428739722160 -->
<g id="node21" class="node">
<title>140428739722160</title>
<polygon fill="lightgrey" stroke="black" points="392,-487.5 303,-487.5 303,-468.5 392,-468.5 392,-487.5"/>
<text text-anchor="middle" x="347.5" y="-475.5" font-family="monospace" font-size="10.00">PowBackward0</text>
</g>
<!-- 140428739722208&#45;&gt;140428739722160 -->
<g id="edge20" class="edge">
<title>140428739722208&#45;&gt;140428739722160</title>
<path fill="none" stroke="black" d="M301.47,-528.87C309.6,-520.05 322.43,-506.16 332.48,-495.27"/>
<polygon fill="black" stroke="black" points="335.29,-497.39 339.5,-487.67 330.14,-492.64 335.29,-497.39"/>
</g>
<!-- 140428739722256 -->
<g id="node18" class="node">
<title>140428739722256</title>
<polygon fill="lightgrey" stroke="black" points="344,-603 243,-603 243,-584 344,-584 344,-603"/>
<text text-anchor="middle" x="293.5" y="-591" font-family="monospace" font-size="10.00">AccumulateGrad</text>
</g>
<!-- 140428739722256&#45;&gt;140428739722208 -->
<g id="edge16" class="edge">
<title>140428739722256&#45;&gt;140428739722208</title>
<path fill="none" stroke="black" d="M293.5,-583.75C293.5,-576.8 293.5,-566.85 293.5,-558.13"/>
<polygon fill="black" stroke="black" points="297,-558.09 293.5,-548.09 290,-558.09 297,-558.09"/>
</g>
<!-- 140428875492544 -->
<g id="node19" class="node">
<title>140428875492544</title>
<polygon fill="lightblue" stroke="black" points="380,-669 207,-669 207,-639 380,-639 380,-669"/>
<text text-anchor="middle" x="293.5" y="-657" font-family="monospace" font-size="10.00">embedding.embedding.weight</text>
<text text-anchor="middle" x="293.5" y="-646" font-family="monospace" font-size="10.00"> (9746, 16)</text>
</g>
<!-- 140428875492544&#45;&gt;140428739722256 -->
<g id="edge17" class="edge">
<title>140428875492544&#45;&gt;140428739722256</title>
<path fill="none" stroke="black" d="M293.5,-638.84C293.5,-631.21 293.5,-621.7 293.5,-613.45"/>
<polygon fill="black" stroke="black" points="297,-613.27 293.5,-603.27 290,-613.27 297,-613.27"/>
</g>
<!-- 140428739721056 -->
<g id="node20" class="node">
<title>140428739721056</title>
<polygon fill="lightgrey" stroke="black" points="392,-427 303,-427 303,-408 392,-408 392,-427"/>
<text text-anchor="middle" x="347.5" y="-415" font-family="monospace" font-size="10.00">SumBackward1</text>
</g>
<!-- 140428739721056&#45;&gt;140428739721824 -->
<g id="edge18" class="edge">
<title>140428739721056&#45;&gt;140428739721824</title>
<path fill="none" stroke="black" d="M339.68,-407.87C331.69,-399.05 319.11,-385.16 309.24,-374.27"/>
<polygon fill="black" stroke="black" points="311.66,-371.73 302.35,-366.67 306.47,-376.43 311.66,-371.73"/>
</g>
<!-- 140428739722160&#45;&gt;140428739721056 -->
<g id="edge19" class="edge">
<title>140428739722160&#45;&gt;140428739721056</title>
<path fill="none" stroke="black" d="M347.5,-468.37C347.5,-460.25 347.5,-447.81 347.5,-437.39"/>
<polygon fill="black" stroke="black" points="351,-437.17 347.5,-427.17 344,-437.17 351,-437.17"/>
</g>
</g>
</svg>
